<svg data-v-423bf9ae="" xmlns="http://www.w3.org/2000/svg" viewBox="0 0 369 90" class="iconLeft"><!----><!----><!----><g data-v-423bf9ae="" id="88906e0c-fc74-4d47-b6bf-77cc7467386e" fill="#000000" transform="matrix(4.709576222757963,0,0,4.709576222757963,99.27757891100066,-1.4364217775950507)"><path d="M3.61 6.62C3.11 6.62 2.65 6.71 2.23 6.89C1.81 7.07 1.46 7.32 1.18 7.63C0.90 7.94 0.67 8.33 0.52 8.75C0.36 9.17 0.28 9.62 0.28 10.12C0.28 10.74 0.36 11.27 0.53 11.75C0.70 12.22 0.92 12.61 1.23 12.94C1.54 13.26 1.89 13.51 2.31 13.68C2.73 13.85 3.18 13.93 3.67 13.93C3.92 13.93 4.19 13.90 4.44 13.86C4.69 13.82 4.94 13.75 5.19 13.66C5.45 13.58 5.66 13.45 5.88 13.31C6.10 13.17 6.29 13.03 6.44 12.84L6.09 12.38C6.03 12.29 5.96 12.25 5.85 12.25C5.77 12.25 5.68 12.29 5.57 12.36C5.46 12.43 5.32 12.50 5.15 12.59C4.98 12.67 4.79 12.75 4.56 12.82C4.34 12.89 4.06 12.92 3.75 12.92C3.42 12.92 3.14 12.87 2.86 12.75C2.58 12.64 2.35 12.47 2.16 12.25C1.96 12.03 1.79 11.77 1.68 11.44C1.57 11.10 1.51 10.71 1.51 10.26L6.22 10.26C6.33 10.26 6.43 10.22 6.47 10.16C6.51 10.11 6.52 9.97 6.52 9.77C6.52 9.27 6.44 8.82 6.30 8.43C6.16 8.04 5.94 7.70 5.68 7.43C5.43 7.17 5.12 6.97 4.76 6.83C4.40 6.69 4.00 6.62 3.58 6.62ZM3.61 7.55C3.89 7.55 4.16 7.59 4.38 7.69C4.61 7.78 4.80 7.92 4.96 8.09C5.11 8.26 5.21 8.48 5.29 8.72C5.38 8.96 5.42 9.23 5.42 9.51L1.57 9.51C1.65 8.89 1.88 8.40 2.21 8.05C2.55 7.70 3.02 7.53 3.63 7.53ZM9.52 5.77L13.02 12.05C13.13 12.26 13.31 12.38 13.52 12.38L13.72 12.38C13.93 12.38 14.08 12.26 14.20 12.05L17.64 5.78C17.61 6.01 17.61 6.24 17.61 6.44L17.61 12.78C17.12 12.87 16.81 12.92 16.67 12.95C16.53 12.98 16.46 13.06 16.46 13.20L16.46 13.82L19.82 13.82L19.82 13.20C19.82 13.06 19.74 12.98 19.60 12.95C19.52 12.92 19.25 12.87 18.80 12.78L18.80 4.80L19.60 4.63C19.74 4.61 19.82 4.52 19.82 4.38L19.82 3.77L17.81 3.77C17.70 3.77 17.58 3.78 17.53 3.81C17.47 3.84 17.39 3.88 17.33 3.99L13.94 10.16C13.83 10.39 13.72 10.63 13.62 10.91C13.50 10.57 13.38 10.32 13.30 10.18L9.84 3.99C9.79 3.88 9.72 3.84 9.66 3.81C9.60 3.78 9.49 3.77 9.38 3.77L7.36 3.77L7.36 4.38C7.36 4.52 7.45 4.61 7.59 4.63C7.67 4.66 7.92 4.72 8.37 4.80L8.37 12.78L7.59 12.95C7.45 12.98 7.36 13.06 7.36 13.20L7.36 13.82L10.71 13.82L10.71 13.20C10.71 13.06 10.65 12.98 10.53 12.95C10.40 12.92 10.08 12.87 9.58 12.78L9.58 6.43C9.58 6.22 9.56 6.01 9.53 5.75ZM23.86 6.62C23.35 6.62 22.89 6.71 22.47 6.89C22.05 7.07 21.70 7.32 21.42 7.63C21.14 7.94 20.92 8.33 20.76 8.75C20.61 9.17 20.52 9.62 20.52 10.12C20.52 10.74 20.61 11.27 20.78 11.75C20.94 12.22 21.17 12.61 21.48 12.94C21.78 13.26 22.13 13.51 22.55 13.68C22.97 13.85 23.42 13.93 23.91 13.93C24.16 13.93 24.43 13.90 24.68 13.86C24.93 13.82 25.19 13.75 25.44 13.66C25.69 13.58 25.90 13.45 26.12 13.31C26.35 13.17 26.53 13.03 26.68 12.84L26.33 12.38C26.28 12.29 26.21 12.25 26.10 12.25C26.01 12.25 25.93 12.29 25.82 12.36C25.70 12.43 25.56 12.50 25.40 12.59C25.23 12.67 25.03 12.75 24.81 12.82C24.58 12.89 24.30 12.92 24.00 12.92C23.66 12.92 23.38 12.87 23.10 12.75C22.82 12.64 22.60 12.47 22.40 12.25C22.20 12.03 22.04 11.77 21.92 11.44C21.81 11.10 21.76 10.71 21.76 10.26L26.46 10.26C26.57 10.26 26.67 10.22 26.71 10.16C26.75 10.11 26.77 9.97 26.77 9.77C26.77 9.27 26.68 8.82 26.54 8.43C26.40 8.04 26.18 7.70 25.93 7.43C25.68 7.17 25.37 6.97 25.00 6.83C24.64 6.69 24.25 6.62 23.83 6.62ZM23.86 7.55C24.14 7.55 24.40 7.59 24.63 7.69C24.85 7.78 25.05 7.92 25.20 8.09C25.35 8.26 25.45 8.48 25.54 8.72C25.62 8.96 25.66 9.23 25.66 9.51L21.81 9.51C21.90 8.89 22.12 8.40 22.46 8.05C22.79 7.70 23.27 7.53 23.87 7.53ZM34.64 12.95C34.58 12.95 34.43 12.92 34.19 12.87L33.82 12.81L31.86 10.32C31.75 10.12 31.61 10.00 31.44 9.88C31.58 9.80 31.71 9.67 31.85 9.51L33.50 7.74C33.96 7.66 34.26 7.60 34.37 7.57C34.48 7.55 34.55 7.46 34.55 7.32L34.55 6.73L34.47 6.73L33.32 6.73L31.58 6.73L31.58 7.32C31.58 7.46 31.67 7.56 31.81 7.59C31.86 7.60 31.92 7.60 32.03 7.63C32.09 7.63 32.14 7.66 32.20 7.66L30.60 9.37C30.49 9.51 30.32 9.56 30.16 9.56L29.85 9.56L29.85 3.50L28.59 3.50L27.58 3.50L27.58 4.10C27.58 4.24 27.65 4.33 27.79 4.35C27.87 4.38 28.14 4.44 28.59 4.52L28.59 12.80L27.79 12.95C27.65 12.98 27.58 13.08 27.58 13.22L27.58 13.82L30.86 13.82L30.86 13.22C30.86 13.08 30.77 12.98 30.63 12.95C30.16 12.85 29.90 12.80 29.85 12.80L29.85 10.43L30.18 10.43C30.32 10.43 30.44 10.44 30.51 10.47C30.58 10.50 30.65 10.56 30.72 10.65L33.04 13.57C33.18 13.73 33.33 13.82 33.52 13.82L34.83 13.82L34.83 13.20C34.83 13.06 34.76 12.98 34.62 12.95ZM38.19 6.59C37.25 6.59 36.50 6.96 35.94 7.66C35.39 8.33 35.11 9.23 35.11 10.29C35.11 11.47 35.36 12.35 35.84 12.98C36.32 13.59 36.96 13.90 37.80 13.90C38.72 13.90 39.51 13.51 40.18 12.70L40.29 13.55C40.35 13.72 40.46 13.82 40.63 13.82L42.36 13.82L42.36 13.20C42.36 13.06 42.31 12.98 42.17 12.95C42.08 12.92 41.80 12.87 41.36 12.78L41.36 3.49L38.98 3.49L38.98 4.10C38.98 4.24 39.05 4.33 39.19 4.35C39.33 4.38 39.65 4.44 40.12 4.52L40.12 7.43C39.62 6.87 38.96 6.59 38.18 6.59ZM38.21 12.89C37.93 12.89 37.66 12.85 37.44 12.75C36.74 12.45 36.40 11.63 36.40 10.29C36.40 9.42 36.57 8.75 36.93 8.27C37.30 7.80 37.81 7.57 38.49 7.57C39.16 7.57 39.70 7.85 40.12 8.41L40.12 11.83C39.59 12.54 38.95 12.91 38.22 12.91ZM46.31 6.62C45.81 6.62 45.35 6.71 44.93 6.89C44.51 7.07 44.16 7.32 43.88 7.63C43.60 7.94 43.37 8.33 43.22 8.75C43.06 9.17 42.98 9.62 42.98 10.12C42.98 10.74 43.06 11.27 43.23 11.75C43.40 12.22 43.62 12.61 43.93 12.94C44.24 13.26 44.59 13.51 45.01 13.68C45.43 13.85 45.88 13.93 46.37 13.93C46.62 13.93 46.89 13.90 47.14 13.86C47.39 13.82 47.64 13.75 47.89 13.66C48.15 13.58 48.36 13.45 48.58 13.31C48.80 13.17 48.99 13.03 49.14 12.84L48.79 12.38C48.73 12.29 48.66 12.25 48.55 12.25C48.47 12.25 48.38 12.29 48.27 12.36C48.16 12.43 48.02 12.50 47.85 12.59C47.68 12.67 47.49 12.75 47.26 12.82C47.04 12.89 46.76 12.92 46.45 12.92C46.12 12.92 45.84 12.87 45.56 12.75C45.28 12.64 45.05 12.47 44.86 12.25C44.66 12.03 44.49 11.77 44.38 11.44C44.27 11.10 44.21 10.71 44.21 10.26L48.92 10.26C49.03 10.26 49.13 10.22 49.17 10.16C49.21 10.11 49.22 9.97 49.22 9.77C49.22 9.27 49.14 8.82 49.00 8.43C48.86 8.04 48.64 7.70 48.38 7.43C48.13 7.17 47.82 6.97 47.46 6.83C47.10 6.69 46.70 6.62 46.28 6.62ZM46.31 7.55C46.59 7.55 46.86 7.59 47.08 7.69C47.31 7.78 47.50 7.92 47.66 8.09C47.81 8.26 47.91 8.48 47.99 8.72C48.08 8.96 48.12 9.23 48.12 9.51L44.27 9.51C44.35 8.89 44.58 8.40 44.91 8.05C45.25 7.70 45.72 7.53 46.33 7.53ZM51.98 7.83L51.88 6.99C51.83 6.82 51.72 6.73 51.55 6.73L50.79 6.73L49.78 6.73L49.78 7.32C49.78 7.46 49.87 7.56 50.01 7.59C50.09 7.62 50.34 7.67 50.79 7.76L50.79 15.20L50.01 15.36C49.87 15.39 49.78 15.48 49.78 15.62L49.78 16.23L53.06 16.23L53.06 15.62C53.06 15.48 52.98 15.39 52.84 15.36C52.81 15.36 52.67 15.33 52.43 15.27C52.19 15.22 52.07 15.19 52.05 15.19L52.05 13.09C52.56 13.65 53.23 13.92 54.10 13.92C54.96 13.92 55.69 13.55 56.25 12.85C56.78 12.18 57.06 11.30 57.06 10.23C57.06 9.07 56.81 8.16 56.34 7.52C55.86 6.90 55.22 6.59 54.38 6.59C53.45 6.59 52.67 7.01 52.00 7.83ZM52.05 12.11L52.05 8.68C52.58 7.97 53.23 7.60 53.96 7.60C55.16 7.60 55.78 8.50 55.78 10.23C55.78 11.10 55.61 11.77 55.24 12.25C54.88 12.73 54.35 12.95 53.68 12.95C53.00 12.95 52.47 12.67 52.05 12.11Z"></path></g><defs data-v-423bf9ae=""><linearGradient data-v-423bf9ae="" gradientTransform="rotate(25)" id="f28f39f8-f7fd-4ae8-84c4-f4024ab56c03" x1="0%" y1="0%" x2="100%" y2="0%"><stop data-v-423bf9ae="" offset="0%" style="stop-color: rgb(81, 164, 251); stop-opacity: 1;"></stop><stop data-v-423bf9ae="" offset="100%" style="stop-color: rgb(81, 164, 251); stop-opacity: 1;"></stop></linearGradient></defs><g data-v-423bf9ae="" id="fef6847e-bd36-4698-a24f-26d67a039ff7" transform="matrix(1.2380760266975257,0,0,1.2380760266975257,-21.452796398368,-16.250500324448602)" stroke="none" fill="url(#f28f39f8-f7fd-4ae8-84c4-f4024ab56c03)"><path d="M78.549 28.899L54 14.725a8 8 0 0 0-8 0L21.451 28.899a8 8 0 0 0-4 6.928v28.348a8.003 8.003 0 0 0 4 6.929L46 85.275a8.001 8.001 0 0 0 8 0l24.549-14.172c2.475-1.43 4-4.07 4-6.929V35.827a8.002 8.002 0 0 0-4-6.928zM50 21.653l20.549 11.865-20.547 11.863-20.551-11.863L50 21.653zM25.451 64.175V40.446L46 52.31v23.728L25.451 64.175zM54 76.037V52.311l20.549-11.863v23.728L54 76.037z"></path></g><!----></svg>